<svg width="105" height="32" viewBox="0 0 105 32" fill="none" xmlns="http://www.w3.org/2000/svg">
<path d="M20 0H12C5.37258 0 0 5.37258 0 12V20C0 26.6274 5.37258 32 12 32H20C26.6274 32 32 26.6274 32 20V12C32 5.37258 26.6274 0 20 0Z" fill="#CF6F49"/>
<path d="M41.36 23V9H46.5C47.62 9 48.54 9.19333 49.26 9.58C49.9933 9.95333 50.54 10.4667 50.9 11.12C51.26 11.76 51.44 12.4733 51.44 13.26C51.44 14.1133 51.2133 14.8933 50.76 15.6C50.32 16.3067 49.6267 16.82 48.68 17.14L51.58 23H48.64L46.04 17.48H43.92V23H41.36ZM43.92 15.6H46.34C47.1933 15.6 47.82 15.3933 48.22 14.98C48.62 14.5667 48.82 14.02 48.82 13.34C48.82 12.6733 48.62 12.14 48.22 11.74C47.8333 11.34 47.2 11.14 46.32 11.14H43.92V15.6ZM57.9755 23.24C56.9755 23.24 56.0888 23.0267 55.3155 22.6C54.5421 22.1733 53.9355 21.5733 53.4955 20.8C53.0555 20.0267 52.8355 19.1333 52.8355 18.12C52.8355 17.0933 53.0488 16.18 53.4755 15.38C53.9155 14.58 54.5155 13.96 55.2755 13.52C56.0488 13.0667 56.9555 12.84 57.9955 12.84C58.9688 12.84 59.8288 13.0533 60.5755 13.48C61.3221 13.9067 61.9021 14.4933 62.3155 15.24C62.7421 15.9733 62.9555 16.7933 62.9555 17.7C62.9555 17.8467 62.9488 18 62.9355 18.16C62.9355 18.32 62.9288 18.4867 62.9155 18.66H55.3755C55.4288 19.4333 55.6955 20.04 56.1755 20.48C56.6688 20.92 57.2621 21.14 57.9555 21.14C58.4755 21.14 58.9088 21.0267 59.2555 20.8C59.6155 20.56 59.8821 20.2533 60.0555 19.88H62.6555C62.4688 20.5067 62.1555 21.08 61.7155 21.6C61.2888 22.1067 60.7555 22.5067 60.1155 22.8C59.4888 23.0933 58.7755 23.24 57.9755 23.24ZM57.9955 14.92C57.3688 14.92 56.8155 15.1 56.3355 15.46C55.8555 15.8067 55.5488 16.34 55.4155 17.06H60.3555C60.3155 16.4067 60.0755 15.8867 59.6355 15.5C59.1955 15.1133 58.6488 14.92 57.9955 14.92ZM68.5286 23.24C67.6753 23.24 66.9753 23.1067 66.4286 22.84C65.8819 22.56 65.4753 22.1933 65.2086 21.74C64.9419 21.2867 64.8086 20.7867 64.8086 20.24C64.8086 19.32 65.1686 18.5733 65.8886 18C66.6086 17.4267 67.6886 17.14 69.1286 17.14H71.6486V16.9C71.6486 16.22 71.4553 15.72 71.0686 15.4C70.6819 15.08 70.2019 14.92 69.6286 14.92C69.1086 14.92 68.6553 15.0467 68.2686 15.3C67.8819 15.54 67.6419 15.9 67.5486 16.38H65.0486C65.1153 15.66 65.3553 15.0333 65.7686 14.5C66.1953 13.9667 66.7419 13.56 67.4086 13.28C68.0753 12.9867 68.8219 12.84 69.6486 12.84C71.0619 12.84 72.1753 13.1933 72.9886 13.9C73.8019 14.6067 74.2086 15.6067 74.2086 16.9V23H72.0286L71.7886 21.4C71.4953 21.9333 71.0819 22.3733 70.5486 22.72C70.0286 23.0667 69.3553 23.24 68.5286 23.24ZM69.1086 21.24C69.8419 21.24 70.4086 21 70.8086 20.52C71.2219 20.04 71.4819 19.4467 71.5886 18.74H69.4086C68.7286 18.74 68.2419 18.8667 67.9486 19.12C67.6553 19.36 67.5086 19.66 67.5086 20.02C67.5086 20.4067 67.6553 20.7067 67.9486 20.92C68.2419 21.1333 68.6286 21.24 69.1086 21.24ZM76.6516 23V8.6H79.2116V23H76.6516ZM86.6873 23.24C85.674 23.24 84.7807 23.02 84.0073 22.58C83.234 22.14 82.6207 21.5267 82.1673 20.74C81.7273 19.9533 81.5073 19.0533 81.5073 18.04C81.5073 17.0267 81.7273 16.1267 82.1673 15.34C82.6207 14.5533 83.234 13.94 84.0073 13.5C84.7807 13.06 85.674 12.84 86.6873 12.84C87.954 12.84 89.0207 13.1733 89.8873 13.84C90.754 14.4933 91.3073 15.4 91.5473 16.56H88.8473C88.714 16.08 88.4473 15.7067 88.0473 15.44C87.6607 15.16 87.2007 15.02 86.6673 15.02C85.9607 15.02 85.3607 15.2867 84.8673 15.82C84.374 16.3533 84.1273 17.0933 84.1273 18.04C84.1273 18.9867 84.374 19.7267 84.8673 20.26C85.3607 20.7933 85.9607 21.06 86.6673 21.06C87.2007 21.06 87.6607 20.9267 88.0473 20.66C88.4473 20.3933 88.714 20.0133 88.8473 19.52H91.5473C91.3073 20.64 90.754 21.54 89.8873 22.22C89.0207 22.9 87.954 23.24 86.6873 23.24ZM98.5795 23.24C97.6195 23.24 96.7529 23.02 95.9795 22.58C95.2195 22.14 94.6129 21.5333 94.1595 20.76C93.7195 19.9733 93.4995 19.0667 93.4995 18.04C93.4995 17.0133 93.7262 16.1133 94.1795 15.34C94.6329 14.5533 95.2395 13.94 95.9995 13.5C96.7729 13.06 97.6395 12.84 98.5995 12.84C99.5462 12.84 100.4 13.06 101.16 13.5C101.933 13.94 102.54 14.5533 102.98 15.34C103.433 16.1133 103.66 17.0133 103.66 18.04C103.66 19.0667 103.433 19.9733 102.98 20.76C102.54 21.5333 101.933 22.14 101.16 22.58C100.386 23.02 99.5262 23.24 98.5795 23.24ZM98.5795 21.02C99.2462 21.02 99.8262 20.7733 100.32 20.28C100.813 19.7733 101.06 19.0267 101.06 18.04C101.06 17.0533 100.813 16.3133 100.32 15.82C99.8262 15.3133 99.2529 15.06 98.5995 15.06C97.9195 15.06 97.3329 15.3133 96.8395 15.82C96.3595 16.3133 96.1195 17.0533 96.1195 18.04C96.1195 19.0267 96.3595 19.7733 96.8395 20.28C97.3329 20.7733 97.9129 21.02 98.5795 21.02Z" fill="#2A2C1F"/>
</svg>
